<svg xmlns="http://www.w3.org/2000/svg" width="1200" height="1130" viewBox="0 0 1200 1130" role="img" aria-labelledby="title desc">
  <title id="title">Public code activity — last 13 weeks</title>
  <desc id="desc">307 authored commits across 16 repositories, 2026-07-06 through 2026-10-04 UTC. Weekly totals: 0, 1, 22, 3, 23, 16, 0, 35, 15, 45, 6, 79, 62. Owned public non-fork, non-archived repositories, default branches only. Generated profile refreshes excluded. MacServer: 105; sourcesight-linux: 50; CalmList: 35; Vector_external: 32; corund207: 24; O.R.B.I.T: 11; sourcesight-windows: 11; portfolio: 10; Reticly: 10; imperial-glass-omarchy: 5; omarchy-bone-grove-theme: 4; crimson-ronin: 3; odyssey: 2; sapphire-ronin-omarchy-theme: 2; VEXVortex: 2; terminal-setup-clone: 1</desc>
  <style>
    .row{animation:rise .65s cubic-bezier(0.25, 0.46, 0.45, 0.94) backwards}
    .bar{transform-box:fill-box;transform-origin:left;animation:grow .85s cubic-bezier(0.215, 0.61, 0.355, 1) backwards}
    .col{transform-box:fill-box;transform-origin:bottom;animation:up .85s cubic-bezier(0.215, 0.61, 0.355, 1) backwards}
    .num{animation:rise .85s cubic-bezier(0.215, 0.61, 0.355, 1) backwards}
    @keyframes rise{from{opacity:0;transform:translateY(16px)}}
    @keyframes grow{from{transform:scaleX(0)}}
    @keyframes up{from{transform:scaleY(0)}}
    @media (prefers-reduced-motion:reduce){*{animation:none!important}}
  </style>
  <rect width="1200" height="1130" rx="28" fill="#1d1d1f"/>
  <g font-family="-apple-system, BlinkMacSystemFont, 'SF Pro Display', 'SF Pro Text', 'Helvetica Neue', Helvetica, Arial, sans-serif">
    <text x="44" y="68" fill="#2997ff" font-family="'SFMono-Regular', ui-monospace, Menlo, Monaco, Consolas, monospace" font-size="12" letter-spacing=".5">PUBLIC CODE ACTIVITY  ·  2026-07-06 — 2026-10-04</text>
    <g class="num">
      <text x="36" y="206" fill="#ffffff" font-size="150" font-weight="520" letter-spacing="-9.7">307<tspan dx="18" fill="#86868b" font-size="28" letter-spacing="-.5">commits</tspan></text>
      <text x="44" y="252" fill="#86868b" font-size="20">across 16 repositories in 13 weeks.</text>
    </g>
    <path d="M560 236H1156" stroke="rgba(245, 245, 247, 0.27)"/>
    <g fill="#86868b" font-family="'SFMono-Regular', ui-monospace, Menlo, Monaco, Consolas, monospace" font-size="10" letter-spacing=".45"><g><title>2026-07-06 to 2026-07-12: 0 commits</title>
      <rect class="col" style="animation-delay:0.10s" x="560" y="232.00" width="34" height="4.00" rx="6" fill="#000000" fill-opacity="1"/>
      <text x="560" y="266">JUL</text></g><g><title>2026-07-13 to 2026-07-19: 1 commits</title>
      <rect class="col" style="animation-delay:0.15s" x="606" y="232.00" width="34" height="4.00" rx="6" fill="#2997ff" fill-opacity="1"/>
      </g><g><title>2026-07-20 to 2026-07-26: 22 commits</title>
      <rect class="col" style="animation-delay:0.20s" x="652" y="197.01" width="34" height="38.99" rx="6" fill="#2997ff" fill-opacity="1"/>
      </g><g><title>2026-07-27 to 2026-08-02: 3 commits</title>
      <rect class="col" style="animation-delay:0.25s" x="698" y="230.68" width="34" height="5.32" rx="6" fill="#2997ff" fill-opacity="1"/>
      </g><g><title>2026-08-03 to 2026-08-09: 23 commits</title>
      <rect class="col" style="animation-delay:0.30s" x="744" y="195.24" width="34" height="40.76" rx="6" fill="#2997ff" fill-opacity="1"/>
      <text x="744" y="266">AUG</text></g><g><title>2026-08-10 to 2026-08-16: 16 commits</title>
      <rect class="col" style="animation-delay:0.35s" x="790" y="207.65" width="34" height="28.35" rx="6" fill="#2997ff" fill-opacity="1"/>
      </g><g><title>2026-08-17 to 2026-08-23: 0 commits</title>
      <rect class="col" style="animation-delay:0.40s" x="836" y="232.00" width="34" height="4.00" rx="6" fill="#000000" fill-opacity="1"/>
      </g><g><title>2026-08-24 to 2026-08-30: 35 commits</title>
      <rect class="col" style="animation-delay:0.45s" x="882" y="173.97" width="34" height="62.03" rx="6" fill="#2997ff" fill-opacity="1"/>
      </g><g><title>2026-08-31 to 2026-09-06: 15 commits</title>
      <rect class="col" style="animation-delay:0.50s" x="928" y="209.42" width="34" height="26.58" rx="6" fill="#2997ff" fill-opacity="1"/>
      </g><g><title>2026-09-07 to 2026-09-13: 45 commits</title>
      <rect class="col" style="animation-delay:0.55s" x="974" y="156.25" width="34" height="79.75" rx="6" fill="#2997ff" fill-opacity="1"/>
      <text x="974" y="266">SEP</text></g><g><title>2026-09-14 to 2026-09-20: 6 commits</title>
      <rect class="col" style="animation-delay:0.60s" x="1020" y="225.37" width="34" height="10.63" rx="6" fill="#2997ff" fill-opacity="1"/>
      </g><g><title>2026-09-21 to 2026-09-27: 79 commits</title>
      <rect class="col" style="animation-delay:0.65s" x="1066" y="96.00" width="34" height="140.00" rx="6" fill="#2997ff" fill-opacity="1"/>
      </g><g><title>2026-09-28 to 2026-10-04: 62 commits</title>
      <rect class="col" style="animation-delay:0.70s" x="1112" y="126.13" width="34" height="109.87" rx="6" fill="#2997ff" fill-opacity=".4" stroke="#2997ff" stroke-dasharray="3 3"/>
      </g></g>
    <text x="1156" y="68" fill="#86868b" font-size="13" text-anchor="end">Updated 2026-10-04 16:53 UTC</text>
    <path d="M44 308H1156" stroke="rgba(245, 245, 247, 0.27)"/>
    <g fill="#86868b" font-size="10" font-family="'SFMono-Regular', ui-monospace, Menlo, Monaco, Consolas, monospace" letter-spacing=".45"><text x="44" y="338">REPOSITORY</text><text x="342" y="338">COMMITS · SHARED SCALE</text><text x="776" y="338">WEEKLY →</text><text x="1156" y="338" text-anchor="end">TOTAL</text></g>
    <g class="row" style="animation-delay:0.20s">
      <title>MacServer: 105 commits</title>
      
      <text x="44" y="390" fill="#f5f5f7" font-size="17">MacServer</text>
      <rect x="342" y="380" width="364" height="8" rx="4" fill="#000000"/>
      <rect class="bar" style="animation-delay:0.30s" x="342" y="380" width="364.00" height="8" rx="4" fill="#2997ff"/>
      <rect x="776" y="377" width="16" height="16" rx="4" fill="#000000" opacity="1"><title>2026-07-06 to 2026-07-12: 0 commits</title></rect><rect x="798" y="377" width="16" height="16" rx="4" fill="#000000" opacity="1"><title>2026-07-13 to 2026-07-19: 0 commits</title></rect><rect x="820" y="377" width="16" height="16" rx="4" fill="#000000" opacity="1"><title>2026-07-20 to 2026-07-26: 0 commits</title></rect><rect x="842" y="377" width="16" height="16" rx="4" fill="#000000" opacity="1"><title>2026-07-27 to 2026-08-02: 0 commits</title></rect><rect x="864" y="377" width="16" height="16" rx="4" fill="#000000" opacity="1"><title>2026-08-03 to 2026-08-09: 0 commits</title></rect><rect x="886" y="377" width="16" height="16" rx="4" fill="#000000" opacity="1"><title>2026-08-10 to 2026-08-16: 0 commits</title></rect><rect x="908" y="377" width="16" height="16" rx="4" fill="#000000" opacity="1"><title>2026-08-17 to 2026-08-23: 0 commits</title></rect><rect x="930" y="377" width="16" height="16" rx="4" fill="#000000" opacity="1"><title>2026-08-24 to 2026-08-30: 0 commits</title></rect><rect x="952" y="377" width="16" height="16" rx="4" fill="#000000" opacity="1"><title>2026-08-31 to 2026-09-06: 0 commits</title></rect><rect x="974" y="377" width="16" height="16" rx="4" fill="#2997ff" opacity="0.571"><title>2026-09-07 to 2026-09-13: 21 commits</title></rect><rect x="996" y="377" width="16" height="16" rx="4" fill="#000000" opacity="1"><title>2026-09-14 to 2026-09-20: 0 commits</title></rect><rect x="1018" y="377" width="16" height="16" rx="4" fill="#2997ff" opacity="0.786"><title>2026-09-21 to 2026-09-27: 35 commits</title></rect><rect x="1040" y="377" width="16" height="16" rx="4" fill="#2997ff" opacity="1.000"><title>2026-09-28 to 2026-10-04: 49 commits</title></rect>
      <text x="1156" y="390" fill="#ffffff" font-size="18" font-weight="520" text-anchor="end">105</text>
    </g>
<g class="row" style="animation-delay:0.25s">
      <title>sourcesight-linux: 50 commits</title>
      <path d="M44 407H1156" stroke="rgba(245, 245, 247, 0.17)"/>
      <text x="44" y="434" fill="#f5f5f7" font-size="17">sourcesight-linux</text>
      <rect x="342" y="424" width="364" height="8" rx="4" fill="#000000"/>
      <rect class="bar" style="animation-delay:0.35s" x="342" y="424" width="173.33" height="8" rx="4" fill="#2997ff"/>
      <rect x="776" y="421" width="16" height="16" rx="4" fill="#000000" opacity="1"><title>2026-07-06 to 2026-07-12: 0 commits</title></rect><rect x="798" y="421" width="16" height="16" rx="4" fill="#000000" opacity="1"><title>2026-07-13 to 2026-07-19: 0 commits</title></rect><rect x="820" y="421" width="16" height="16" rx="4" fill="#000000" opacity="1"><title>2026-07-20 to 2026-07-26: 0 commits</title></rect><rect x="842" y="421" width="16" height="16" rx="4" fill="#000000" opacity="1"><title>2026-07-27 to 2026-08-02: 0 commits</title></rect><rect x="864" y="421" width="16" height="16" rx="4" fill="#000000" opacity="1"><title>2026-08-03 to 2026-08-09: 0 commits</title></rect><rect x="886" y="421" width="16" height="16" rx="4" fill="#000000" opacity="1"><title>2026-08-10 to 2026-08-16: 0 commits</title></rect><rect x="908" y="421" width="16" height="16" rx="4" fill="#000000" opacity="1"><title>2026-08-17 to 2026-08-23: 0 commits</title></rect><rect x="930" y="421" width="16" height="16" rx="4" fill="#2997ff" opacity="0.786"><title>2026-08-24 to 2026-08-30: 35 commits</title></rect><rect x="952" y="421" width="16" height="16" rx="4" fill="#2997ff" opacity="0.265"><title>2026-08-31 to 2026-09-06: 1 commits</title></rect><rect x="974" y="421" width="16" height="16" rx="4" fill="#2997ff" opacity="0.464"><title>2026-09-07 to 2026-09-13: 14 commits</title></rect><rect x="996" y="421" width="16" height="16" rx="4" fill="#000000" opacity="1"><title>2026-09-14 to 2026-09-20: 0 commits</title></rect><rect x="1018" y="421" width="16" height="16" rx="4" fill="#000000" opacity="1"><title>2026-09-21 to 2026-09-27: 0 commits</title></rect><rect x="1040" y="421" width="16" height="16" rx="4" fill="#000000" opacity="1"><title>2026-09-28 to 2026-10-04: 0 commits</title></rect>
      <text x="1156" y="434" fill="#ffffff" font-size="18" font-weight="520" text-anchor="end">50</text>
    </g>
<g class="row" style="animation-delay:0.30s">
      <title>CalmList: 35 commits</title>
      <path d="M44 451H1156" stroke="rgba(245, 245, 247, 0.17)"/>
      <text x="44" y="478" fill="#f5f5f7" font-size="17">CalmList</text>
      <rect x="342" y="468" width="364" height="8" rx="4" fill="#000000"/>
      <rect class="bar" style="animation-delay:0.40s" x="342" y="468" width="121.33" height="8" rx="4" fill="#2997ff"/>
      <rect x="776" y="465" width="16" height="16" rx="4" fill="#000000" opacity="1"><title>2026-07-06 to 2026-07-12: 0 commits</title></rect><rect x="798" y="465" width="16" height="16" rx="4" fill="#000000" opacity="1"><title>2026-07-13 to 2026-07-19: 0 commits</title></rect><rect x="820" y="465" width="16" height="16" rx="4" fill="#000000" opacity="1"><title>2026-07-20 to 2026-07-26: 0 commits</title></rect><rect x="842" y="465" width="16" height="16" rx="4" fill="#000000" opacity="1"><title>2026-07-27 to 2026-08-02: 0 commits</title></rect><rect x="864" y="465" width="16" height="16" rx="4" fill="#000000" opacity="1"><title>2026-08-03 to 2026-08-09: 0 commits</title></rect><rect x="886" y="465" width="16" height="16" rx="4" fill="#000000" opacity="1"><title>2026-08-10 to 2026-08-16: 0 commits</title></rect><rect x="908" y="465" width="16" height="16" rx="4" fill="#000000" opacity="1"><title>2026-08-17 to 2026-08-23: 0 commits</title></rect><rect x="930" y="465" width="16" height="16" rx="4" fill="#000000" opacity="1"><title>2026-08-24 to 2026-08-30: 0 commits</title></rect><rect x="952" y="465" width="16" height="16" rx="4" fill="#000000" opacity="1"><title>2026-08-31 to 2026-09-06: 0 commits</title></rect><rect x="974" y="465" width="16" height="16" rx="4" fill="#000000" opacity="1"><title>2026-09-07 to 2026-09-13: 0 commits</title></rect><rect x="996" y="465" width="16" height="16" rx="4" fill="#000000" opacity="1"><title>2026-09-14 to 2026-09-20: 0 commits</title></rect><rect x="1018" y="465" width="16" height="16" rx="4" fill="#2997ff" opacity="0.786"><title>2026-09-21 to 2026-09-27: 35 commits</title></rect><rect x="1040" y="465" width="16" height="16" rx="4" fill="#000000" opacity="1"><title>2026-09-28 to 2026-10-04: 0 commits</title></rect>
      <text x="1156" y="478" fill="#ffffff" font-size="18" font-weight="520" text-anchor="end">35</text>
    </g>
<g class="row" style="animation-delay:0.35s">
      <title>Vector_external: 32 commits</title>
      <path d="M44 495H1156" stroke="rgba(245, 245, 247, 0.17)"/>
      <text x="44" y="522" fill="#f5f5f7" font-size="17">Vector_external</text>
      <rect x="342" y="512" width="364" height="8" rx="4" fill="#000000"/>
      <rect class="bar" style="animation-delay:0.45s" x="342" y="512" width="110.93" height="8" rx="4" fill="#2997ff"/>
      <rect x="776" y="509" width="16" height="16" rx="4" fill="#000000" opacity="1"><title>2026-07-06 to 2026-07-12: 0 commits</title></rect><rect x="798" y="509" width="16" height="16" rx="4" fill="#000000" opacity="1"><title>2026-07-13 to 2026-07-19: 0 commits</title></rect><rect x="820" y="509" width="16" height="16" rx="4" fill="#000000" opacity="1"><title>2026-07-20 to 2026-07-26: 0 commits</title></rect><rect x="842" y="509" width="16" height="16" rx="4" fill="#000000" opacity="1"><title>2026-07-27 to 2026-08-02: 0 commits</title></rect><rect x="864" y="509" width="16" height="16" rx="4" fill="#2997ff" opacity="0.602"><title>2026-08-03 to 2026-08-09: 23 commits</title></rect><rect x="886" y="509" width="16" height="16" rx="4" fill="#2997ff" opacity="0.388"><title>2026-08-10 to 2026-08-16: 9 commits</title></rect><rect x="908" y="509" width="16" height="16" rx="4" fill="#000000" opacity="1"><title>2026-08-17 to 2026-08-23: 0 commits</title></rect><rect x="930" y="509" width="16" height="16" rx="4" fill="#000000" opacity="1"><title>2026-08-24 to 2026-08-30: 0 commits</title></rect><rect x="952" y="509" width="16" height="16" rx="4" fill="#000000" opacity="1"><title>2026-08-31 to 2026-09-06: 0 commits</title></rect><rect x="974" y="509" width="16" height="16" rx="4" fill="#000000" opacity="1"><title>2026-09-07 to 2026-09-13: 0 commits</title></rect><rect x="996" y="509" width="16" height="16" rx="4" fill="#000000" opacity="1"><title>2026-09-14 to 2026-09-20: 0 commits</title></rect><rect x="1018" y="509" width="16" height="16" rx="4" fill="#000000" opacity="1"><title>2026-09-21 to 2026-09-27: 0 commits</title></rect><rect x="1040" y="509" width="16" height="16" rx="4" fill="#000000" opacity="1"><title>2026-09-28 to 2026-10-04: 0 commits</title></rect>
      <text x="1156" y="522" fill="#ffffff" font-size="18" font-weight="520" text-anchor="end">32</text>
    </g>
<g class="row" style="animation-delay:0.40s">
      <title>corund207: 24 commits</title>
      <path d="M44 539H1156" stroke="rgba(245, 245, 247, 0.17)"/>
      <text x="44" y="566" fill="#f5f5f7" font-size="17">corund207</text>
      <rect x="342" y="556" width="364" height="8" rx="4" fill="#000000"/>
      <rect class="bar" style="animation-delay:0.50s" x="342" y="556" width="83.20" height="8" rx="4" fill="#2997ff"/>
      <rect x="776" y="553" width="16" height="16" rx="4" fill="#000000" opacity="1"><title>2026-07-06 to 2026-07-12: 0 commits</title></rect><rect x="798" y="553" width="16" height="16" rx="4" fill="#000000" opacity="1"><title>2026-07-13 to 2026-07-19: 0 commits</title></rect><rect x="820" y="553" width="16" height="16" rx="4" fill="#2997ff" opacity="0.342"><title>2026-07-20 to 2026-07-26: 6 commits</title></rect><rect x="842" y="553" width="16" height="16" rx="4" fill="#2997ff" opacity="0.281"><title>2026-07-27 to 2026-08-02: 2 commits</title></rect><rect x="864" y="553" width="16" height="16" rx="4" fill="#000000" opacity="1"><title>2026-08-03 to 2026-08-09: 0 commits</title></rect><rect x="886" y="553" width="16" height="16" rx="4" fill="#2997ff" opacity="0.342"><title>2026-08-10 to 2026-08-16: 6 commits</title></rect><rect x="908" y="553" width="16" height="16" rx="4" fill="#000000" opacity="1"><title>2026-08-17 to 2026-08-23: 0 commits</title></rect><rect x="930" y="553" width="16" height="16" rx="4" fill="#000000" opacity="1"><title>2026-08-24 to 2026-08-30: 0 commits</title></rect><rect x="952" y="553" width="16" height="16" rx="4" fill="#2997ff" opacity="0.281"><title>2026-08-31 to 2026-09-06: 2 commits</title></rect><rect x="974" y="553" width="16" height="16" rx="4" fill="#2997ff" opacity="0.357"><title>2026-09-07 to 2026-09-13: 7 commits</title></rect><rect x="996" y="553" width="16" height="16" rx="4" fill="#000000" opacity="1"><title>2026-09-14 to 2026-09-20: 0 commits</title></rect><rect x="1018" y="553" width="16" height="16" rx="4" fill="#2997ff" opacity="0.265"><title>2026-09-21 to 2026-09-27: 1 commits</title></rect><rect x="1040" y="553" width="16" height="16" rx="4" fill="#000000" opacity="1"><title>2026-09-28 to 2026-10-04: 0 commits</title></rect>
      <text x="1156" y="566" fill="#ffffff" font-size="18" font-weight="520" text-anchor="end">24</text>
    </g>
<g class="row" style="animation-delay:0.45s">
      <title>O.R.B.I.T: 11 commits</title>
      <path d="M44 583H1156" stroke="rgba(245, 245, 247, 0.17)"/>
      <text x="44" y="610" fill="#f5f5f7" font-size="17">O.R.B.I.T</text>
      <rect x="342" y="600" width="364" height="8" rx="4" fill="#000000"/>
      <rect class="bar" style="animation-delay:0.55s" x="342" y="600" width="38.13" height="8" rx="4" fill="#2997ff"/>
      <rect x="776" y="597" width="16" height="16" rx="4" fill="#000000" opacity="1"><title>2026-07-06 to 2026-07-12: 0 commits</title></rect><rect x="798" y="597" width="16" height="16" rx="4" fill="#2997ff" opacity="0.265"><title>2026-07-13 to 2026-07-19: 1 commits</title></rect><rect x="820" y="597" width="16" height="16" rx="4" fill="#2997ff" opacity="0.403"><title>2026-07-20 to 2026-07-26: 10 commits</title></rect><rect x="842" y="597" width="16" height="16" rx="4" fill="#000000" opacity="1"><title>2026-07-27 to 2026-08-02: 0 commits</title></rect><rect x="864" y="597" width="16" height="16" rx="4" fill="#000000" opacity="1"><title>2026-08-03 to 2026-08-09: 0 commits</title></rect><rect x="886" y="597" width="16" height="16" rx="4" fill="#000000" opacity="1"><title>2026-08-10 to 2026-08-16: 0 commits</title></rect><rect x="908" y="597" width="16" height="16" rx="4" fill="#000000" opacity="1"><title>2026-08-17 to 2026-08-23: 0 commits</title></rect><rect x="930" y="597" width="16" height="16" rx="4" fill="#000000" opacity="1"><title>2026-08-24 to 2026-08-30: 0 commits</title></rect><rect x="952" y="597" width="16" height="16" rx="4" fill="#000000" opacity="1"><title>2026-08-31 to 2026-09-06: 0 commits</title></rect><rect x="974" y="597" width="16" height="16" rx="4" fill="#000000" opacity="1"><title>2026-09-07 to 2026-09-13: 0 commits</title></rect><rect x="996" y="597" width="16" height="16" rx="4" fill="#000000" opacity="1"><title>2026-09-14 to 2026-09-20: 0 commits</title></rect><rect x="1018" y="597" width="16" height="16" rx="4" fill="#000000" opacity="1"><title>2026-09-21 to 2026-09-27: 0 commits</title></rect><rect x="1040" y="597" width="16" height="16" rx="4" fill="#000000" opacity="1"><title>2026-09-28 to 2026-10-04: 0 commits</title></rect>
      <text x="1156" y="610" fill="#ffffff" font-size="18" font-weight="520" text-anchor="end">11</text>
    </g>
<g class="row" style="animation-delay:0.50s">
      <title>sourcesight-windows: 11 commits</title>
      <path d="M44 627H1156" stroke="rgba(245, 245, 247, 0.17)"/>
      <text x="44" y="654" fill="#f5f5f7" font-size="17">sourcesight-windows</text>
      <rect x="342" y="644" width="364" height="8" rx="4" fill="#000000"/>
      <rect class="bar" style="animation-delay:0.60s" x="342" y="644" width="38.13" height="8" rx="4" fill="#2997ff"/>
      <rect x="776" y="641" width="16" height="16" rx="4" fill="#000000" opacity="1"><title>2026-07-06 to 2026-07-12: 0 commits</title></rect><rect x="798" y="641" width="16" height="16" rx="4" fill="#000000" opacity="1"><title>2026-07-13 to 2026-07-19: 0 commits</title></rect><rect x="820" y="641" width="16" height="16" rx="4" fill="#000000" opacity="1"><title>2026-07-20 to 2026-07-26: 0 commits</title></rect><rect x="842" y="641" width="16" height="16" rx="4" fill="#000000" opacity="1"><title>2026-07-27 to 2026-08-02: 0 commits</title></rect><rect x="864" y="641" width="16" height="16" rx="4" fill="#000000" opacity="1"><title>2026-08-03 to 2026-08-09: 0 commits</title></rect><rect x="886" y="641" width="16" height="16" rx="4" fill="#000000" opacity="1"><title>2026-08-10 to 2026-08-16: 0 commits</title></rect><rect x="908" y="641" width="16" height="16" rx="4" fill="#000000" opacity="1"><title>2026-08-17 to 2026-08-23: 0 commits</title></rect><rect x="930" y="641" width="16" height="16" rx="4" fill="#000000" opacity="1"><title>2026-08-24 to 2026-08-30: 0 commits</title></rect><rect x="952" y="641" width="16" height="16" rx="4" fill="#000000" opacity="1"><title>2026-08-31 to 2026-09-06: 0 commits</title></rect><rect x="974" y="641" width="16" height="16" rx="4" fill="#000000" opacity="1"><title>2026-09-07 to 2026-09-13: 0 commits</title></rect><rect x="996" y="641" width="16" height="16" rx="4" fill="#000000" opacity="1"><title>2026-09-14 to 2026-09-20: 0 commits</title></rect><rect x="1018" y="641" width="16" height="16" rx="4" fill="#2997ff" opacity="0.372"><title>2026-09-21 to 2026-09-27: 8 commits</title></rect><rect x="1040" y="641" width="16" height="16" rx="4" fill="#2997ff" opacity="0.296"><title>2026-09-28 to 2026-10-04: 3 commits</title></rect>
      <text x="1156" y="654" fill="#ffffff" font-size="18" font-weight="520" text-anchor="end">11</text>
    </g>
<g class="row" style="animation-delay:0.55s">
      <title>portfolio: 10 commits</title>
      <path d="M44 671H1156" stroke="rgba(245, 245, 247, 0.17)"/>
      <text x="44" y="698" fill="#f5f5f7" font-size="17">portfolio</text>
      <rect x="342" y="688" width="364" height="8" rx="4" fill="#000000"/>
      <rect class="bar" style="animation-delay:0.65s" x="342" y="688" width="34.67" height="8" rx="4" fill="#2997ff"/>
      <rect x="776" y="685" width="16" height="16" rx="4" fill="#000000" opacity="1"><title>2026-07-06 to 2026-07-12: 0 commits</title></rect><rect x="798" y="685" width="16" height="16" rx="4" fill="#000000" opacity="1"><title>2026-07-13 to 2026-07-19: 0 commits</title></rect><rect x="820" y="685" width="16" height="16" rx="4" fill="#2997ff" opacity="0.342"><title>2026-07-20 to 2026-07-26: 6 commits</title></rect><rect x="842" y="685" width="16" height="16" rx="4" fill="#2997ff" opacity="0.265"><title>2026-07-27 to 2026-08-02: 1 commits</title></rect><rect x="864" y="685" width="16" height="16" rx="4" fill="#000000" opacity="1"><title>2026-08-03 to 2026-08-09: 0 commits</title></rect><rect x="886" y="685" width="16" height="16" rx="4" fill="#000000" opacity="1"><title>2026-08-10 to 2026-08-16: 0 commits</title></rect><rect x="908" y="685" width="16" height="16" rx="4" fill="#000000" opacity="1"><title>2026-08-17 to 2026-08-23: 0 commits</title></rect><rect x="930" y="685" width="16" height="16" rx="4" fill="#000000" opacity="1"><title>2026-08-24 to 2026-08-30: 0 commits</title></rect><rect x="952" y="685" width="16" height="16" rx="4" fill="#000000" opacity="1"><title>2026-08-31 to 2026-09-06: 0 commits</title></rect><rect x="974" y="685" width="16" height="16" rx="4" fill="#2997ff" opacity="0.265"><title>2026-09-07 to 2026-09-13: 1 commits</title></rect><rect x="996" y="685" width="16" height="16" rx="4" fill="#2997ff" opacity="0.281"><title>2026-09-14 to 2026-09-20: 2 commits</title></rect><rect x="1018" y="685" width="16" height="16" rx="4" fill="#000000" opacity="1"><title>2026-09-21 to 2026-09-27: 0 commits</title></rect><rect x="1040" y="685" width="16" height="16" rx="4" fill="#000000" opacity="1"><title>2026-09-28 to 2026-10-04: 0 commits</title></rect>
      <text x="1156" y="698" fill="#ffffff" font-size="18" font-weight="520" text-anchor="end">10</text>
    </g>
<g class="row" style="animation-delay:0.60s">
      <title>Reticly: 10 commits</title>
      <path d="M44 715H1156" stroke="rgba(245, 245, 247, 0.17)"/>
      <text x="44" y="742" fill="#f5f5f7" font-size="17">Reticly</text>
      <rect x="342" y="732" width="364" height="8" rx="4" fill="#000000"/>
      <rect class="bar" style="animation-delay:0.70s" x="342" y="732" width="34.67" height="8" rx="4" fill="#2997ff"/>
      <rect x="776" y="729" width="16" height="16" rx="4" fill="#000000" opacity="1"><title>2026-07-06 to 2026-07-12: 0 commits</title></rect><rect x="798" y="729" width="16" height="16" rx="4" fill="#000000" opacity="1"><title>2026-07-13 to 2026-07-19: 0 commits</title></rect><rect x="820" y="729" width="16" height="16" rx="4" fill="#000000" opacity="1"><title>2026-07-20 to 2026-07-26: 0 commits</title></rect><rect x="842" y="729" width="16" height="16" rx="4" fill="#000000" opacity="1"><title>2026-07-27 to 2026-08-02: 0 commits</title></rect><rect x="864" y="729" width="16" height="16" rx="4" fill="#000000" opacity="1"><title>2026-08-03 to 2026-08-09: 0 commits</title></rect><rect x="886" y="729" width="16" height="16" rx="4" fill="#000000" opacity="1"><title>2026-08-10 to 2026-08-16: 0 commits</title></rect><rect x="908" y="729" width="16" height="16" rx="4" fill="#000000" opacity="1"><title>2026-08-17 to 2026-08-23: 0 commits</title></rect><rect x="930" y="729" width="16" height="16" rx="4" fill="#000000" opacity="1"><title>2026-08-24 to 2026-08-30: 0 commits</title></rect><rect x="952" y="729" width="16" height="16" rx="4" fill="#000000" opacity="1"><title>2026-08-31 to 2026-09-06: 0 commits</title></rect><rect x="974" y="729" width="16" height="16" rx="4" fill="#000000" opacity="1"><title>2026-09-07 to 2026-09-13: 0 commits</title></rect><rect x="996" y="729" width="16" height="16" rx="4" fill="#000000" opacity="1"><title>2026-09-14 to 2026-09-20: 0 commits</title></rect><rect x="1018" y="729" width="16" height="16" rx="4" fill="#000000" opacity="1"><title>2026-09-21 to 2026-09-27: 0 commits</title></rect><rect x="1040" y="729" width="16" height="16" rx="4" fill="#2997ff" opacity="0.403"><title>2026-09-28 to 2026-10-04: 10 commits</title></rect>
      <text x="1156" y="742" fill="#ffffff" font-size="18" font-weight="520" text-anchor="end">10</text>
    </g>
<g class="row" style="animation-delay:0.65s">
      <title>imperial-glass-omarchy: 5 commits</title>
      <path d="M44 759H1156" stroke="rgba(245, 245, 247, 0.17)"/>
      <text x="44" y="786" fill="#f5f5f7" font-size="17">imperial-glass-omarchy</text>
      <rect x="342" y="776" width="364" height="8" rx="4" fill="#000000"/>
      <rect class="bar" style="animation-delay:0.75s" x="342" y="776" width="17.33" height="8" rx="4" fill="#2997ff"/>
      <rect x="776" y="773" width="16" height="16" rx="4" fill="#000000" opacity="1"><title>2026-07-06 to 2026-07-12: 0 commits</title></rect><rect x="798" y="773" width="16" height="16" rx="4" fill="#000000" opacity="1"><title>2026-07-13 to 2026-07-19: 0 commits</title></rect><rect x="820" y="773" width="16" height="16" rx="4" fill="#000000" opacity="1"><title>2026-07-20 to 2026-07-26: 0 commits</title></rect><rect x="842" y="773" width="16" height="16" rx="4" fill="#000000" opacity="1"><title>2026-07-27 to 2026-08-02: 0 commits</title></rect><rect x="864" y="773" width="16" height="16" rx="4" fill="#000000" opacity="1"><title>2026-08-03 to 2026-08-09: 0 commits</title></rect><rect x="886" y="773" width="16" height="16" rx="4" fill="#000000" opacity="1"><title>2026-08-10 to 2026-08-16: 0 commits</title></rect><rect x="908" y="773" width="16" height="16" rx="4" fill="#000000" opacity="1"><title>2026-08-17 to 2026-08-23: 0 commits</title></rect><rect x="930" y="773" width="16" height="16" rx="4" fill="#000000" opacity="1"><title>2026-08-24 to 2026-08-30: 0 commits</title></rect><rect x="952" y="773" width="16" height="16" rx="4" fill="#2997ff" opacity="0.327"><title>2026-08-31 to 2026-09-06: 5 commits</title></rect><rect x="974" y="773" width="16" height="16" rx="4" fill="#000000" opacity="1"><title>2026-09-07 to 2026-09-13: 0 commits</title></rect><rect x="996" y="773" width="16" height="16" rx="4" fill="#000000" opacity="1"><title>2026-09-14 to 2026-09-20: 0 commits</title></rect><rect x="1018" y="773" width="16" height="16" rx="4" fill="#000000" opacity="1"><title>2026-09-21 to 2026-09-27: 0 commits</title></rect><rect x="1040" y="773" width="16" height="16" rx="4" fill="#000000" opacity="1"><title>2026-09-28 to 2026-10-04: 0 commits</title></rect>
      <text x="1156" y="786" fill="#ffffff" font-size="18" font-weight="520" text-anchor="end">5</text>
    </g>
<g class="row" style="animation-delay:0.70s">
      <title>omarchy-bone-grove-theme: 4 commits</title>
      <path d="M44 803H1156" stroke="rgba(245, 245, 247, 0.17)"/>
      <text x="44" y="830" fill="#f5f5f7" font-size="17">omarchy-bone-grove-theme</text>
      <rect x="342" y="820" width="364" height="8" rx="4" fill="#000000"/>
      <rect class="bar" style="animation-delay:0.80s" x="342" y="820" width="13.87" height="8" rx="4" fill="#2997ff"/>
      <rect x="776" y="817" width="16" height="16" rx="4" fill="#000000" opacity="1"><title>2026-07-06 to 2026-07-12: 0 commits</title></rect><rect x="798" y="817" width="16" height="16" rx="4" fill="#000000" opacity="1"><title>2026-07-13 to 2026-07-19: 0 commits</title></rect><rect x="820" y="817" width="16" height="16" rx="4" fill="#000000" opacity="1"><title>2026-07-20 to 2026-07-26: 0 commits</title></rect><rect x="842" y="817" width="16" height="16" rx="4" fill="#000000" opacity="1"><title>2026-07-27 to 2026-08-02: 0 commits</title></rect><rect x="864" y="817" width="16" height="16" rx="4" fill="#000000" opacity="1"><title>2026-08-03 to 2026-08-09: 0 commits</title></rect><rect x="886" y="817" width="16" height="16" rx="4" fill="#000000" opacity="1"><title>2026-08-10 to 2026-08-16: 0 commits</title></rect><rect x="908" y="817" width="16" height="16" rx="4" fill="#000000" opacity="1"><title>2026-08-17 to 2026-08-23: 0 commits</title></rect><rect x="930" y="817" width="16" height="16" rx="4" fill="#000000" opacity="1"><title>2026-08-24 to 2026-08-30: 0 commits</title></rect><rect x="952" y="817" width="16" height="16" rx="4" fill="#000000" opacity="1"><title>2026-08-31 to 2026-09-06: 0 commits</title></rect><rect x="974" y="817" width="16" height="16" rx="4" fill="#000000" opacity="1"><title>2026-09-07 to 2026-09-13: 0 commits</title></rect><rect x="996" y="817" width="16" height="16" rx="4" fill="#2997ff" opacity="0.311"><title>2026-09-14 to 2026-09-20: 4 commits</title></rect><rect x="1018" y="817" width="16" height="16" rx="4" fill="#000000" opacity="1"><title>2026-09-21 to 2026-09-27: 0 commits</title></rect><rect x="1040" y="817" width="16" height="16" rx="4" fill="#000000" opacity="1"><title>2026-09-28 to 2026-10-04: 0 commits</title></rect>
      <text x="1156" y="830" fill="#ffffff" font-size="18" font-weight="520" text-anchor="end">4</text>
    </g>
<g class="row" style="animation-delay:0.75s">
      <title>crimson-ronin: 3 commits</title>
      <path d="M44 847H1156" stroke="rgba(245, 245, 247, 0.17)"/>
      <text x="44" y="874" fill="#f5f5f7" font-size="17">crimson-ronin</text>
      <rect x="342" y="864" width="364" height="8" rx="4" fill="#000000"/>
      <rect class="bar" style="animation-delay:0.85s" x="342" y="864" width="10.40" height="8" rx="4" fill="#2997ff"/>
      <rect x="776" y="861" width="16" height="16" rx="4" fill="#000000" opacity="1"><title>2026-07-06 to 2026-07-12: 0 commits</title></rect><rect x="798" y="861" width="16" height="16" rx="4" fill="#000000" opacity="1"><title>2026-07-13 to 2026-07-19: 0 commits</title></rect><rect x="820" y="861" width="16" height="16" rx="4" fill="#000000" opacity="1"><title>2026-07-20 to 2026-07-26: 0 commits</title></rect><rect x="842" y="861" width="16" height="16" rx="4" fill="#000000" opacity="1"><title>2026-07-27 to 2026-08-02: 0 commits</title></rect><rect x="864" y="861" width="16" height="16" rx="4" fill="#000000" opacity="1"><title>2026-08-03 to 2026-08-09: 0 commits</title></rect><rect x="886" y="861" width="16" height="16" rx="4" fill="#000000" opacity="1"><title>2026-08-10 to 2026-08-16: 0 commits</title></rect><rect x="908" y="861" width="16" height="16" rx="4" fill="#000000" opacity="1"><title>2026-08-17 to 2026-08-23: 0 commits</title></rect><rect x="930" y="861" width="16" height="16" rx="4" fill="#000000" opacity="1"><title>2026-08-24 to 2026-08-30: 0 commits</title></rect><rect x="952" y="861" width="16" height="16" rx="4" fill="#2997ff" opacity="0.296"><title>2026-08-31 to 2026-09-06: 3 commits</title></rect><rect x="974" y="861" width="16" height="16" rx="4" fill="#000000" opacity="1"><title>2026-09-07 to 2026-09-13: 0 commits</title></rect><rect x="996" y="861" width="16" height="16" rx="4" fill="#000000" opacity="1"><title>2026-09-14 to 2026-09-20: 0 commits</title></rect><rect x="1018" y="861" width="16" height="16" rx="4" fill="#000000" opacity="1"><title>2026-09-21 to 2026-09-27: 0 commits</title></rect><rect x="1040" y="861" width="16" height="16" rx="4" fill="#000000" opacity="1"><title>2026-09-28 to 2026-10-04: 0 commits</title></rect>
      <text x="1156" y="874" fill="#ffffff" font-size="18" font-weight="520" text-anchor="end">3</text>
    </g>
<g class="row" style="animation-delay:0.80s">
      <title>odyssey: 2 commits</title>
      <path d="M44 891H1156" stroke="rgba(245, 245, 247, 0.17)"/>
      <text x="44" y="918" fill="#f5f5f7" font-size="17">odyssey</text>
      <rect x="342" y="908" width="364" height="8" rx="4" fill="#000000"/>
      <rect class="bar" style="animation-delay:0.90s" x="342" y="908" width="6.93" height="8" rx="4" fill="#2997ff"/>
      <rect x="776" y="905" width="16" height="16" rx="4" fill="#000000" opacity="1"><title>2026-07-06 to 2026-07-12: 0 commits</title></rect><rect x="798" y="905" width="16" height="16" rx="4" fill="#000000" opacity="1"><title>2026-07-13 to 2026-07-19: 0 commits</title></rect><rect x="820" y="905" width="16" height="16" rx="4" fill="#000000" opacity="1"><title>2026-07-20 to 2026-07-26: 0 commits</title></rect><rect x="842" y="905" width="16" height="16" rx="4" fill="#000000" opacity="1"><title>2026-07-27 to 2026-08-02: 0 commits</title></rect><rect x="864" y="905" width="16" height="16" rx="4" fill="#000000" opacity="1"><title>2026-08-03 to 2026-08-09: 0 commits</title></rect><rect x="886" y="905" width="16" height="16" rx="4" fill="#000000" opacity="1"><title>2026-08-10 to 2026-08-16: 0 commits</title></rect><rect x="908" y="905" width="16" height="16" rx="4" fill="#000000" opacity="1"><title>2026-08-17 to 2026-08-23: 0 commits</title></rect><rect x="930" y="905" width="16" height="16" rx="4" fill="#000000" opacity="1"><title>2026-08-24 to 2026-08-30: 0 commits</title></rect><rect x="952" y="905" width="16" height="16" rx="4" fill="#2997ff" opacity="0.281"><title>2026-08-31 to 2026-09-06: 2 commits</title></rect><rect x="974" y="905" width="16" height="16" rx="4" fill="#000000" opacity="1"><title>2026-09-07 to 2026-09-13: 0 commits</title></rect><rect x="996" y="905" width="16" height="16" rx="4" fill="#000000" opacity="1"><title>2026-09-14 to 2026-09-20: 0 commits</title></rect><rect x="1018" y="905" width="16" height="16" rx="4" fill="#000000" opacity="1"><title>2026-09-21 to 2026-09-27: 0 commits</title></rect><rect x="1040" y="905" width="16" height="16" rx="4" fill="#000000" opacity="1"><title>2026-09-28 to 2026-10-04: 0 commits</title></rect>
      <text x="1156" y="918" fill="#ffffff" font-size="18" font-weight="520" text-anchor="end">2</text>
    </g>
<g class="row" style="animation-delay:0.85s">
      <title>sapphire-ronin-omarchy-theme: 2 commits</title>
      <path d="M44 935H1156" stroke="rgba(245, 245, 247, 0.17)"/>
      <text x="44" y="962" fill="#f5f5f7" font-size="17">sapphire-ronin-omarchy-th…</text>
      <rect x="342" y="952" width="364" height="8" rx="4" fill="#000000"/>
      <rect class="bar" style="animation-delay:0.95s" x="342" y="952" width="6.93" height="8" rx="4" fill="#2997ff"/>
      <rect x="776" y="949" width="16" height="16" rx="4" fill="#000000" opacity="1"><title>2026-07-06 to 2026-07-12: 0 commits</title></rect><rect x="798" y="949" width="16" height="16" rx="4" fill="#000000" opacity="1"><title>2026-07-13 to 2026-07-19: 0 commits</title></rect><rect x="820" y="949" width="16" height="16" rx="4" fill="#000000" opacity="1"><title>2026-07-20 to 2026-07-26: 0 commits</title></rect><rect x="842" y="949" width="16" height="16" rx="4" fill="#000000" opacity="1"><title>2026-07-27 to 2026-08-02: 0 commits</title></rect><rect x="864" y="949" width="16" height="16" rx="4" fill="#000000" opacity="1"><title>2026-08-03 to 2026-08-09: 0 commits</title></rect><rect x="886" y="949" width="16" height="16" rx="4" fill="#000000" opacity="1"><title>2026-08-10 to 2026-08-16: 0 commits</title></rect><rect x="908" y="949" width="16" height="16" rx="4" fill="#000000" opacity="1"><title>2026-08-17 to 2026-08-23: 0 commits</title></rect><rect x="930" y="949" width="16" height="16" rx="4" fill="#000000" opacity="1"><title>2026-08-24 to 2026-08-30: 0 commits</title></rect><rect x="952" y="949" width="16" height="16" rx="4" fill="#2997ff" opacity="0.281"><title>2026-08-31 to 2026-09-06: 2 commits</title></rect><rect x="974" y="949" width="16" height="16" rx="4" fill="#000000" opacity="1"><title>2026-09-07 to 2026-09-13: 0 commits</title></rect><rect x="996" y="949" width="16" height="16" rx="4" fill="#000000" opacity="1"><title>2026-09-14 to 2026-09-20: 0 commits</title></rect><rect x="1018" y="949" width="16" height="16" rx="4" fill="#000000" opacity="1"><title>2026-09-21 to 2026-09-27: 0 commits</title></rect><rect x="1040" y="949" width="16" height="16" rx="4" fill="#000000" opacity="1"><title>2026-09-28 to 2026-10-04: 0 commits</title></rect>
      <text x="1156" y="962" fill="#ffffff" font-size="18" font-weight="520" text-anchor="end">2</text>
    </g>
<g class="row" style="animation-delay:0.90s">
      <title>VEXVortex: 2 commits</title>
      <path d="M44 979H1156" stroke="rgba(245, 245, 247, 0.17)"/>
      <text x="44" y="1006" fill="#f5f5f7" font-size="17">VEXVortex</text>
      <rect x="342" y="996" width="364" height="8" rx="4" fill="#000000"/>
      <rect class="bar" style="animation-delay:1.00s" x="342" y="996" width="6.93" height="8" rx="4" fill="#2997ff"/>
      <rect x="776" y="993" width="16" height="16" rx="4" fill="#000000" opacity="1"><title>2026-07-06 to 2026-07-12: 0 commits</title></rect><rect x="798" y="993" width="16" height="16" rx="4" fill="#000000" opacity="1"><title>2026-07-13 to 2026-07-19: 0 commits</title></rect><rect x="820" y="993" width="16" height="16" rx="4" fill="#000000" opacity="1"><title>2026-07-20 to 2026-07-26: 0 commits</title></rect><rect x="842" y="993" width="16" height="16" rx="4" fill="#000000" opacity="1"><title>2026-07-27 to 2026-08-02: 0 commits</title></rect><rect x="864" y="993" width="16" height="16" rx="4" fill="#000000" opacity="1"><title>2026-08-03 to 2026-08-09: 0 commits</title></rect><rect x="886" y="993" width="16" height="16" rx="4" fill="#000000" opacity="1"><title>2026-08-10 to 2026-08-16: 0 commits</title></rect><rect x="908" y="993" width="16" height="16" rx="4" fill="#000000" opacity="1"><title>2026-08-17 to 2026-08-23: 0 commits</title></rect><rect x="930" y="993" width="16" height="16" rx="4" fill="#000000" opacity="1"><title>2026-08-24 to 2026-08-30: 0 commits</title></rect><rect x="952" y="993" width="16" height="16" rx="4" fill="#000000" opacity="1"><title>2026-08-31 to 2026-09-06: 0 commits</title></rect><rect x="974" y="993" width="16" height="16" rx="4" fill="#2997ff" opacity="0.281"><title>2026-09-07 to 2026-09-13: 2 commits</title></rect><rect x="996" y="993" width="16" height="16" rx="4" fill="#000000" opacity="1"><title>2026-09-14 to 2026-09-20: 0 commits</title></rect><rect x="1018" y="993" width="16" height="16" rx="4" fill="#000000" opacity="1"><title>2026-09-21 to 2026-09-27: 0 commits</title></rect><rect x="1040" y="993" width="16" height="16" rx="4" fill="#000000" opacity="1"><title>2026-09-28 to 2026-10-04: 0 commits</title></rect>
      <text x="1156" y="1006" fill="#ffffff" font-size="18" font-weight="520" text-anchor="end">2</text>
    </g>
<g class="row" style="animation-delay:0.95s">
      <title>terminal-setup-clone: 1 commits</title>
      <path d="M44 1023H1156" stroke="rgba(245, 245, 247, 0.17)"/>
      <text x="44" y="1050" fill="#f5f5f7" font-size="17">terminal-setup-clone</text>
      <rect x="342" y="1040" width="364" height="8" rx="4" fill="#000000"/>
      <rect class="bar" style="animation-delay:1.05s" x="342" y="1040" width="3.47" height="8" rx="4" fill="#2997ff"/>
      <rect x="776" y="1037" width="16" height="16" rx="4" fill="#000000" opacity="1"><title>2026-07-06 to 2026-07-12: 0 commits</title></rect><rect x="798" y="1037" width="16" height="16" rx="4" fill="#000000" opacity="1"><title>2026-07-13 to 2026-07-19: 0 commits</title></rect><rect x="820" y="1037" width="16" height="16" rx="4" fill="#000000" opacity="1"><title>2026-07-20 to 2026-07-26: 0 commits</title></rect><rect x="842" y="1037" width="16" height="16" rx="4" fill="#000000" opacity="1"><title>2026-07-27 to 2026-08-02: 0 commits</title></rect><rect x="864" y="1037" width="16" height="16" rx="4" fill="#000000" opacity="1"><title>2026-08-03 to 2026-08-09: 0 commits</title></rect><rect x="886" y="1037" width="16" height="16" rx="4" fill="#2997ff" opacity="0.265"><title>2026-08-10 to 2026-08-16: 1 commits</title></rect><rect x="908" y="1037" width="16" height="16" rx="4" fill="#000000" opacity="1"><title>2026-08-17 to 2026-08-23: 0 commits</title></rect><rect x="930" y="1037" width="16" height="16" rx="4" fill="#000000" opacity="1"><title>2026-08-24 to 2026-08-30: 0 commits</title></rect><rect x="952" y="1037" width="16" height="16" rx="4" fill="#000000" opacity="1"><title>2026-08-31 to 2026-09-06: 0 commits</title></rect><rect x="974" y="1037" width="16" height="16" rx="4" fill="#000000" opacity="1"><title>2026-09-07 to 2026-09-13: 0 commits</title></rect><rect x="996" y="1037" width="16" height="16" rx="4" fill="#000000" opacity="1"><title>2026-09-14 to 2026-09-20: 0 commits</title></rect><rect x="1018" y="1037" width="16" height="16" rx="4" fill="#000000" opacity="1"><title>2026-09-21 to 2026-09-27: 0 commits</title></rect><rect x="1040" y="1037" width="16" height="16" rx="4" fill="#000000" opacity="1"><title>2026-09-28 to 2026-10-04: 0 commits</title></rect>
      <text x="1156" y="1050" fill="#ffffff" font-size="18" font-weight="520" text-anchor="end">1</text>
    </g>
    <path d="M44 1074H1156" stroke="rgba(245, 245, 247, 0.17)"/>
    <text x="44" y="1104" fill="#86868b" font-size="13">Default branches · author dates in UTC · dashed column is the current, partial week</text>
    <text x="1156" y="1104" fill="#86868b" font-size="13" text-anchor="end">Weekly shade: 0 → 49 commits</text>
  </g>
</svg>
